<svg width="373" height="182" viewBox="0 0 373 182" xmlns="http://www.w3.org/2000/svg">
<path d="M118.943 36.9091L138.865 71.3729H139.717L159.852 36.9091H189.362L156.443 91.4545L190.428 146H160.172L139.717 111.163H138.865L118.411 146H88.3679L122.192 91.4545L89.2202 36.9091H118.943Z" fill="black"/>
<path d="M67.223 69.6151C66.8679 65.7088 65.2876 62.6726 62.4822 60.5064C59.7124 58.3047 55.7528 57.2038 50.6037 57.2038C47.1946 57.2038 44.3537 57.6477 42.081 58.5355C39.8082 59.4233 38.1037 60.6484 36.9673 62.2109C35.831 63.7379 35.245 65.4957 35.2095 67.4844C35.1385 69.1179 35.4581 70.5561 36.1683 71.799C36.9141 73.0419 37.9794 74.1428 39.3643 75.1016C40.7848 76.0249 42.4893 76.8416 44.478 77.5518C46.4666 78.2621 48.7038 78.8835 51.1896 79.4162L60.5646 81.5469C65.9624 82.7188 70.7209 84.2812 74.8402 86.2344C78.995 88.1875 82.4751 90.5135 85.2805 93.2124C88.1215 95.9112 90.2699 99.0185 91.7259 102.534C93.1818 106.05 93.9276 109.991 93.9631 114.359C93.9276 121.249 92.1875 127.161 88.7429 132.097C85.2983 137.033 80.3445 140.815 73.8814 143.443C67.4538 146.071 59.6946 147.385 50.6037 147.385C41.4773 147.385 33.5227 146.018 26.7401 143.283C19.9574 140.549 14.6839 136.394 10.9197 130.819C7.15554 125.244 5.22017 118.195 5.11364 109.672H30.3622C30.5753 113.188 31.5163 116.117 33.1854 118.461C34.8544 120.805 37.1449 122.58 40.0568 123.788C43.0043 124.995 46.4134 125.599 50.2841 125.599C53.8352 125.599 56.8537 125.119 59.3395 124.161C61.8608 123.202 63.7962 121.87 65.1456 120.165C66.495 118.461 67.1875 116.508 67.223 114.306C67.1875 112.246 66.5483 110.489 65.3054 109.033C64.0625 107.541 62.1449 106.263 59.5526 105.197C56.9957 104.097 53.7287 103.085 49.7514 102.161L38.3523 99.4979C28.9062 97.3317 21.4666 93.8338 16.0334 89.0043C10.6001 84.1392 7.90128 77.5696 7.93679 69.2955C7.90128 62.5483 9.71236 56.6357 13.37 51.5575C17.0277 46.4794 22.0881 42.5199 28.5511 39.679C35.0142 36.8381 42.3828 35.4176 50.657 35.4176C59.1087 35.4176 66.4418 36.8558 72.6562 39.7322C78.9062 42.5732 83.7536 46.5682 87.1982 51.7173C90.6428 56.8665 92.4006 62.8324 92.4716 69.6151H67.223Z" fill="black"/>
<path fill-rule="evenodd" clip-rule="evenodd" d="M373 39.5278C366.342 37.8857 359.252 37 351.897 37C313.294 37 282 61.4005 282 91.5C282 121.6 313.294 146 351.897 146C359.252 146 366.342 145.114 373 143.472V116.498C367.179 118.657 360.172 120 351.897 120C321.26 120 308 101.589 308 91.5C308 81.4109 321.26 63 351.897 63C360.172 63 367.179 64.343 373 66.5024V39.5278Z" fill="black"/>
<path fill-rule="evenodd" clip-rule="evenodd" d="M339 37H214V58H272.85C288.514 46.3617 312.15 38.5066 339 37.1946V37Z" fill="black"/>
<path fill-rule="evenodd" clip-rule="evenodd" d="M272.85 125C288.901 136.926 313.326 144.88 341 145.891V146H214V125L272.85 125Z" fill="black"/>
<path fill-rule="evenodd" clip-rule="evenodd" d="M254.743 81C253.599 84.3977 253 87.9083 253 91.5C253 95.0917 253.599 98.6023 254.743 102H185V81L254.743 81Z" fill="black"/>
</svg>